<svg width="12" height="12" viewBox="0 0 12 12" fill="none" xmlns="http://www.w3.org/2000/svg">
<path d="M6 0C2.69169 0 0 2.67382 0 5.96016C0 9.24649 2.69169 11.9203 6 11.9203C9.30831 11.9203 12 9.24649 12 5.96016C12 2.67382 9.30831 0 6 0ZM6 0.916947C8.80892 0.916947 11.0769 3.16989 11.0769 5.96016C11.0769 8.75043 8.80892 11.0034 6 11.0034C3.19108 11.0034 0.923077 8.75043 0.923077 5.96016C0.923077 3.16989 3.19108 0.916947 6 0.916947ZM5.95662 3.20931C4.42246 3.20931 3.18738 4.43619 3.18738 5.96016C3.18738 7.48412 4.42246 8.711 5.95662 8.711C7.06385 8.711 8.01046 8.05171 8.45169 7.12055L7.61538 6.73406C7.31769 7.36217 6.696 7.79405 5.95662 7.79405C4.90569 7.79405 4.11046 7.0041 4.11046 5.96016C4.11046 4.91621 4.90569 4.12626 5.95662 4.12626C6.696 4.12626 7.31815 4.55769 7.61538 5.18671L8.45215 4.79976C8.01 3.8686 7.06385 3.20931 5.95615 3.20931H5.95662Z" fill="white"/>
</svg>
