<svg width="253" height="45" viewBox="0 0 253 45" fill="none" xmlns="http://www.w3.org/2000/svg">
<path d="M0.208 35V29.432H4.624V6.968H0.208V1.4H14.032C18.544 1.4 21.968 2.552 24.304 4.856C26.672 7.128 27.856 10.52 27.856 15.032V21.368C27.856 25.88 26.672 29.288 24.304 31.592C21.968 33.864 18.544 35 14.032 35H0.208ZM10.96 29.24H14.128C16.688 29.24 18.56 28.568 19.744 27.224C20.928 25.88 21.52 23.992 21.52 21.56V14.84C21.52 12.376 20.928 10.488 19.744 9.176C18.56 7.832 16.688 7.16 14.128 7.16H10.96V29.24ZM33.1367 35V1.4H54.7368V7.16H39.4728V15.176H53.3928V20.936H39.4728V29.24H55.0248V35H33.1367ZM65.9549 35L57.4109 1.4H63.9389L71.0429 30.92H71.7149L78.8189 1.4H85.3469L76.8029 35H65.9549ZM100.676 35.672C98.0838 35.672 95.7958 35.208 93.8118 34.28C91.8278 33.352 90.2758 32.024 89.1558 30.296C88.0358 28.568 87.4758 26.488 87.4758 24.056V22.712H93.7158V24.056C93.7158 26.072 94.3398 27.592 95.5878 28.616C96.8358 29.608 98.5318 30.104 100.676 30.104C102.852 30.104 104.468 29.672 105.524 28.808C106.612 27.944 107.156 26.84 107.156 25.496C107.156 24.568 106.884 23.816 106.34 23.24C105.828 22.664 105.06 22.2 104.036 21.848C103.044 21.464 101.828 21.112 100.388 20.792L99.2838 20.552C96.9798 20.04 94.9958 19.4 93.3318 18.632C91.6998 17.832 90.4358 16.792 89.5398 15.512C88.6758 14.232 88.2438 12.568 88.2438 10.52C88.2438 8.472 88.7238 6.728 89.6838 5.288C90.6758 3.816 92.0518 2.696 93.8118 1.928C95.6038 1.128 97.6998 0.727998 100.1 0.727998C102.5 0.727998 104.628 1.144 106.484 1.976C108.372 2.776 109.844 3.992 110.9 5.624C111.988 7.224 112.532 9.24 112.532 11.672V13.112H106.292V11.672C106.292 10.392 106.036 9.368 105.524 8.6C105.044 7.8 104.34 7.224 103.412 6.872C102.484 6.488 101.38 6.296 100.1 6.296C98.1798 6.296 96.7558 6.664 95.8278 7.4C94.9318 8.104 94.4838 9.08 94.4838 10.328C94.4838 11.16 94.6918 11.864 95.1078 12.44C95.5558 13.016 96.2118 13.496 97.0758 13.88C97.9398 14.264 99.0438 14.6 100.388 14.888L101.492 15.128C103.892 15.64 105.972 16.296 107.732 17.096C109.524 17.896 110.916 18.952 111.908 20.264C112.9 21.576 113.396 23.256 113.396 25.304C113.396 27.352 112.868 29.16 111.812 30.728C110.788 32.264 109.316 33.48 107.396 34.376C105.508 35.24 103.268 35.672 100.676 35.672ZM131.177 35.672C126.953 35.672 123.593 34.52 121.097 32.216C118.601 29.88 117.353 26.552 117.353 22.232V14.168C117.353 9.848 118.601 6.536 121.097 4.232C123.593 1.896 126.953 0.727998 131.177 0.727998C135.401 0.727998 138.761 1.896 141.257 4.232C143.753 6.536 145.001 9.848 145.001 14.168V22.232C145.001 26.552 143.753 29.88 141.257 32.216C138.761 34.52 135.401 35.672 131.177 35.672ZM131.177 30.008C133.545 30.008 135.385 29.32 136.697 27.944C138.009 26.568 138.665 24.728 138.665 22.424V13.976C138.665 11.672 138.009 9.832 136.697 8.456C135.385 7.08 133.545 6.392 131.177 6.392C128.841 6.392 127.001 7.08 125.657 8.456C124.345 9.832 123.689 11.672 123.689 13.976V22.424C123.689 24.728 124.345 26.568 125.657 27.944C127.001 29.32 128.841 30.008 131.177 30.008ZM163.327 35.672C159.167 35.672 155.871 34.52 153.439 32.216C151.007 29.88 149.791 26.552 149.791 22.232V14.168C149.791 9.848 151.007 6.536 153.439 4.232C155.871 1.896 159.167 0.727998 163.327 0.727998C167.455 0.727998 170.639 1.864 172.879 4.136C175.151 6.376 176.287 9.464 176.287 13.4V13.688H170.047V13.208C170.047 11.224 169.487 9.592 168.367 8.312C167.279 7.032 165.599 6.392 163.327 6.392C161.087 6.392 159.327 7.08 158.047 8.456C156.767 9.832 156.127 11.704 156.127 14.072V22.328C156.127 24.664 156.767 26.536 158.047 27.944C159.327 29.32 161.087 30.008 163.327 30.008C165.599 30.008 167.279 29.368 168.367 28.088C169.487 26.776 170.047 25.144 170.047 23.192V22.328H176.287V23C176.287 26.936 175.151 30.04 172.879 32.312C170.639 34.552 167.455 35.672 163.327 35.672ZM177.513 44.6L191.625 1.4H197.673L183.561 44.6H177.513ZM198.907 35V30.968C198.907 28.632 199.291 26.696 200.059 25.16C200.827 23.592 201.931 22.312 203.371 21.32C204.843 20.296 206.635 19.464 208.747 18.824L211.963 17.816C213.147 17.432 214.139 16.968 214.939 16.424C215.739 15.848 216.347 15.16 216.763 14.36C217.211 13.56 217.435 12.648 217.435 11.624V11.432C217.435 9.832 216.891 8.568 215.803 7.64C214.715 6.68 213.227 6.2 211.339 6.2C209.483 6.2 207.979 6.712 206.827 7.736C205.707 8.728 205.147 10.168 205.147 12.056V12.92H199.003V12.152C199.003 9.72 199.547 7.656 200.635 5.96C201.723 4.264 203.195 2.968 205.051 2.072C206.939 1.176 209.035 0.727998 211.339 0.727998C213.643 0.727998 215.723 1.176 217.579 2.072C219.435 2.936 220.891 4.168 221.947 5.768C223.035 7.336 223.579 9.192 223.579 11.336V11.816C223.579 13.96 223.131 15.784 222.235 17.288C221.371 18.76 220.187 19.976 218.683 20.936C217.179 21.864 215.467 22.632 213.547 23.24L210.475 24.2C209.099 24.616 208.027 25.08 207.259 25.592C206.491 26.072 205.947 26.616 205.627 27.224C205.339 27.8 205.195 28.504 205.195 29.336V29.528H223.291V35H198.907ZM227.407 35V30.968C227.407 28.632 227.791 26.696 228.559 25.16C229.327 23.592 230.431 22.312 231.871 21.32C233.343 20.296 235.135 19.464 237.247 18.824L240.463 17.816C241.647 17.432 242.639 16.968 243.439 16.424C244.239 15.848 244.847 15.16 245.263 14.36C245.711 13.56 245.935 12.648 245.935 11.624V11.432C245.935 9.832 245.391 8.568 244.303 7.64C243.215 6.68 241.727 6.2 239.839 6.2C237.983 6.2 236.479 6.712 235.327 7.736C234.207 8.728 233.647 10.168 233.647 12.056V12.92H227.503V12.152C227.503 9.72 228.047 7.656 229.135 5.96C230.223 4.264 231.695 2.968 233.551 2.072C235.439 1.176 237.535 0.727998 239.839 0.727998C242.143 0.727998 244.223 1.176 246.079 2.072C247.935 2.936 249.391 4.168 250.447 5.768C251.535 7.336 252.079 9.192 252.079 11.336V11.816C252.079 13.96 251.631 15.784 250.735 17.288C249.871 18.76 248.687 19.976 247.183 20.936C245.679 21.864 243.967 22.632 242.047 23.24L238.975 24.2C237.599 24.616 236.527 25.08 235.759 25.592C234.991 26.072 234.447 26.616 234.127 27.224C233.839 27.8 233.695 28.504 233.695 29.336V29.528H251.791V35H227.407Z" fill="#E9E9E9"/>
</svg>
